<svg width="1163" height="379" viewBox="0 0 1163 379" fill="none" xmlns="http://www.w3.org/2000/svg">
<rect width="1163" height="379" fill="white"/>
<path d="M361.345 57.5907L443 319.262M342.646 128.747L401.861 319.262M318.336 189.574L361.345 319.262" stroke="#DE287D" stroke-width="10" stroke-linecap="round"/>
<path d="M151.287 195.312L193.673 318.114M171.856 128.747L236.058 318.114M193.673 61.0338L234.5 186.131M275.327 311.228L254.914 248.679M234.5 186.131L279.691 61.0338M234.5 186.131L254.914 248.679M254.914 248.679L320.206 61.0338" stroke="#DE287D" stroke-width="10" stroke-linecap="round"/>
<path d="M276.574 314.671L362.592 53" stroke="#186FA5" stroke-width="10" stroke-linecap="round"/>
<path d="M65.8924 325L150.664 61.0338" stroke="#DE287D" stroke-width="10" stroke-linecap="round"/>
<path d="M108.278 325L193.049 61.0338" stroke="#186FA5" stroke-width="10" stroke-linecap="round"/>
<path d="M26 320.409L110.771 56.443" stroke="#DE287D" stroke-width="10" stroke-linecap="round"/>
<path d="M631.047 75.0938C634.901 100.771 637.766 117.802 639.641 126.188C641.516 134.521 643.365 142.464 645.188 150.016C647.01 157.568 648.469 163.844 649.562 168.844C645.865 170.042 641.411 170.641 636.203 170.641C631.047 170.641 627.401 170.042 625.266 168.844C621.203 161.135 616.359 136.917 610.734 96.1875C609.797 89.4167 609.25 85.5365 609.094 84.5469C599.458 107.359 592.948 127.75 589.562 145.719C588.312 152.281 587.688 156.891 587.688 159.547C587.688 162.203 587.688 163.766 587.688 164.234C584.458 166.526 580.214 167.672 574.953 167.672C569.172 167.672 565.63 166.526 564.328 164.234C563.547 161.995 561.672 156.24 558.703 146.969C550.734 121.969 543.651 100.875 537.453 83.6875L537.141 88.2188C536.359 104.938 535.344 116.734 534.094 123.609C532.844 130.484 531.698 136.135 530.656 140.562C529.615 144.938 528.365 148.844 526.906 152.281C525.5 155.667 523.885 158.792 522.062 161.656C517.896 168.323 512.714 171.656 506.516 171.656C501.359 171.656 497.245 169.781 494.172 166.031C492.714 164.26 491.984 162.359 491.984 160.328C496.411 157.359 500.474 153.297 504.172 148.141C507.87 142.984 510.891 137.568 513.234 131.891C515.578 126.214 517.609 120.146 519.328 113.688C522.922 100.25 524.719 88.6094 524.719 78.7656C524.719 75.5365 524.484 73.4531 524.016 72.5156C523.547 71.526 523.208 70.7969 523 70.3281C522.792 69.8073 522.375 69.3385 521.75 68.9219C521.125 68.5052 520.708 68.2448 520.5 68.1406C520.344 68.0365 519.875 67.8542 519.094 67.5938C518.312 67.2812 517.87 67.099 517.766 67.0469C516.932 66.0052 516.516 64.2865 516.516 61.8906C516.516 59.4427 516.62 57.8021 516.828 56.9688C519.432 56.4479 522.922 56.1875 527.297 56.1875C531.724 56.1875 537.505 56.4479 544.641 56.9688C547.141 57.4896 555.135 75.0677 568.625 109.703C573.729 122.828 576.932 130.641 578.234 133.141C581.047 123.557 590.057 98.2188 605.266 57.125C610.474 56.7604 613.885 56.5781 615.5 56.5781C617.167 56.5781 618.99 56.9167 620.969 57.5938C623 58.2188 625.005 60.1198 626.984 63.2969C628.964 66.474 630.318 70.4062 631.047 75.0938Z" fill="#DE287D"/>
<path d="M760.453 124.859L759.984 151.109C759.984 151.37 759.984 151.63 759.984 151.891C759.984 154.755 761.339 156.188 764.047 156.188C766.13 156.188 768.344 155.51 770.688 154.156C771.417 154.781 772.094 155.667 772.719 156.812C773.396 157.906 773.786 158.766 773.891 159.391C767.432 167.62 760.714 171.734 753.734 171.734C746.807 171.734 741.964 168.323 739.203 161.5C734.411 164.833 729.516 167.359 724.516 169.078C719.568 170.849 715.297 171.734 711.703 171.734C708.161 171.734 704.854 171.344 701.781 170.562C698.76 169.781 695.948 168.531 693.344 166.812C687.719 163.167 684.906 157.151 684.906 148.766C684.906 144.286 686.13 140.38 688.578 137.047C691.078 133.661 694.464 131.005 698.734 129.078C706.911 125.38 716.677 123.375 728.031 123.062L737.094 122.75C737.458 118.531 737.641 115.198 737.641 112.75C737.641 107.229 736.573 103.062 734.438 100.25C732.354 97.4375 728.448 96.0312 722.719 96.0312C719.281 96.0312 716.599 97.2292 714.672 99.625C712.797 102.021 711.859 105.562 711.859 110.25C711.859 110.875 710.974 111.63 709.203 112.516C706.234 113.922 703.266 114.625 700.297 114.625C697.38 114.625 695.036 113.792 693.266 112.125C691.547 110.458 690.688 108.115 690.688 105.094C690.688 102.073 691.781 99.2344 693.969 96.5781C696.156 93.9219 699.073 91.8646 702.719 90.4062C709.958 87.5417 718.214 86.1094 727.484 86.1094C737.172 86.1094 744.255 87.6458 748.734 90.7188C752.797 93.4271 755.688 97.3073 757.406 102.359C759.438 108.245 760.453 115.745 760.453 124.859ZM737.094 153.297C736.417 149.495 736.078 146.214 736.078 143.453C736.078 140.641 736.156 136.734 736.312 131.734L725.453 132.203C719.88 132.203 715.583 133.557 712.562 136.266C709.542 138.974 708.031 142.359 708.031 146.422C708.031 150.484 708.917 153.401 710.688 155.172C712.458 156.943 716.026 157.828 721.391 157.828C726.807 157.828 732.042 156.318 737.094 153.297ZM877.722 116.578C877.722 107.672 875.691 103.219 871.628 103.219C868.659 103.219 865.821 104.078 863.113 105.797C860.404 107.464 857.488 109.807 854.363 112.828C854.363 118.036 854.206 136.812 853.894 169.156C848.113 170.146 843.373 170.641 839.675 170.641C836.029 170.641 832.878 170.146 830.222 169.156C830.847 160.51 831.159 145.693 831.159 124.703V106.422C831.159 102.464 829.779 100.12 827.019 99.3906C825.144 98.8177 822.618 98.401 819.441 98.1406C819.076 96.5781 818.894 95.4062 818.894 94.625C818.894 93.7917 818.92 93.1406 818.972 92.6719C826.472 88.4531 835.743 86.3438 846.784 86.3438C848.607 86.3438 849.961 86.3698 850.847 86.4219C852.357 89.026 853.243 91.7344 853.503 94.5469C853.816 97.3594 854.05 100.042 854.206 102.594C861.185 94.1042 867.071 88.9479 871.863 87.125C874.154 86.2396 876.576 85.7969 879.128 85.7969C884.336 85.7969 888.503 87.2552 891.628 90.1719C894.805 93.0365 896.394 97.2552 896.394 102.828C896.394 107.099 894.831 110.667 891.706 113.531C888.633 116.344 884.909 117.75 880.534 117.75C879.597 117.75 878.659 117.672 877.722 117.516V116.578ZM955.069 49.3125C958.142 46.7083 961.475 45.4062 965.069 45.4062C968.663 45.4062 971.631 46.526 973.975 48.7656C976.319 50.9531 977.491 54.0521 977.491 58.0625C977.491 62.0729 975.98 65.4583 972.959 68.2188C969.939 70.9271 966.475 72.2812 962.569 72.2812C958.715 72.2812 955.668 71.0833 953.428 68.6875C951.241 66.2917 950.147 63.2188 950.147 59.4688C950.147 55.7188 951.788 52.3333 955.069 49.3125ZM952.959 106.422C952.959 102.464 951.579 100.12 948.819 99.3906C947.048 98.8177 944.548 98.401 941.319 98.1406C940.954 96.5781 940.772 95.4062 940.772 94.625C940.772 93.7917 940.798 93.1406 940.85 92.6719C948.35 88.4531 957.751 86.3438 969.053 86.3438C970.876 86.3438 972.23 86.3698 973.116 86.4219C974.574 88.7135 975.59 93.1927 976.163 99.8594C976.579 102.88 976.788 107.438 976.788 113.531C976.788 119.625 976.579 138.167 976.163 169.156C970.381 170.146 965.564 170.641 961.709 170.641C957.907 170.641 954.678 170.146 952.022 169.156C952.959 156.604 953.428 145.38 953.428 135.484C953.428 125.536 953.272 115.849 952.959 106.422ZM1107.42 124.859L1106.95 151.109C1106.95 151.37 1106.95 151.63 1106.95 151.891C1106.95 154.755 1108.3 156.188 1111.01 156.188C1113.09 156.188 1115.31 155.51 1117.65 154.156C1118.38 154.781 1119.06 155.667 1119.68 156.812C1120.36 157.906 1120.75 158.766 1120.85 159.391C1114.39 167.62 1107.68 171.734 1100.7 171.734C1093.77 171.734 1088.93 168.323 1086.17 161.5C1081.37 164.833 1076.48 167.359 1071.48 169.078C1066.53 170.849 1062.26 171.734 1058.67 171.734C1055.12 171.734 1051.82 171.344 1048.74 170.562C1045.72 169.781 1042.91 168.531 1040.31 166.812C1034.68 163.167 1031.87 157.151 1031.87 148.766C1031.87 144.286 1033.09 140.38 1035.54 137.047C1038.04 133.661 1041.43 131.005 1045.7 129.078C1053.87 125.38 1063.64 123.375 1074.99 123.062L1084.06 122.75C1084.42 118.531 1084.6 115.198 1084.6 112.75C1084.6 107.229 1083.54 103.062 1081.4 100.25C1079.32 97.4375 1075.41 96.0312 1069.68 96.0312C1066.24 96.0312 1063.56 97.2292 1061.63 99.625C1059.76 102.021 1058.82 105.562 1058.82 110.25C1058.82 110.875 1057.94 111.63 1056.17 112.516C1053.2 113.922 1050.23 114.625 1047.26 114.625C1044.34 114.625 1042 113.792 1040.23 112.125C1038.51 110.458 1037.65 108.115 1037.65 105.094C1037.65 102.073 1038.74 99.2344 1040.93 96.5781C1043.12 93.9219 1046.04 91.8646 1049.68 90.4062C1056.92 87.5417 1065.18 86.1094 1074.45 86.1094C1084.13 86.1094 1091.22 87.6458 1095.7 90.7188C1099.76 93.4271 1102.65 97.3073 1104.37 102.359C1106.4 108.245 1107.42 115.745 1107.42 124.859ZM1084.06 153.297C1083.38 149.495 1083.04 146.214 1083.04 143.453C1083.04 140.641 1083.12 136.734 1083.27 131.734L1072.42 132.203C1066.84 132.203 1062.55 133.557 1059.52 136.266C1056.5 138.974 1054.99 142.359 1054.99 146.422C1054.99 150.484 1055.88 153.401 1057.65 155.172C1059.42 156.943 1062.99 157.828 1068.35 157.828C1073.77 157.828 1079 156.318 1084.06 153.297Z" fill="#186FA5"/>
<path d="M775.531 264.625C775.531 271.448 774.307 277.854 771.859 283.844C769.411 289.833 765.948 294.729 761.469 298.531C752.458 306.188 740.557 310.016 725.766 310.016C718.37 310.016 711.547 308.271 705.297 304.781C699.047 301.292 694.073 296.422 690.375 290.172C686.677 283.87 684.828 276.37 684.828 267.672C684.828 258.922 687.068 251.057 691.547 244.078C700.349 230.328 715.115 223.453 735.844 223.453C746.26 223.453 755.401 227.021 763.266 234.156C771.443 241.604 775.531 251.76 775.531 264.625ZM707.875 266.891C707.875 275.797 710.453 283.583 715.609 290.25C720.766 296.917 726.807 300.25 733.734 300.25C746.547 300.25 752.953 289.807 752.953 268.922C752.953 258.557 750.583 250.146 745.844 243.688C741.104 237.229 735.062 234 727.719 234C724.021 234 720.818 234.938 718.109 236.812C715.401 238.688 713.344 241.214 711.938 244.391C709.229 250.484 707.875 257.984 707.875 266.891ZM890.906 201.891L890.203 250.016C890.203 261.109 890.359 274.599 890.672 290.484C890.672 293.974 892.104 295.849 894.969 296.109C895.594 296.161 896.557 296.188 897.859 296.188C899.161 296.188 900.177 296.214 900.906 296.266C901.479 297.255 901.766 298.297 901.766 299.391C901.766 300.484 901.688 301.422 901.531 302.203C892.469 307.307 884.839 309.859 878.641 309.859C874.318 309.182 870.854 305.823 868.25 299.781C864.552 303.323 860.906 305.875 857.312 307.438C853.719 309.052 849.812 309.859 845.594 309.859C841.375 309.859 837.521 309.417 834.031 308.531C830.594 307.698 827.182 306.24 823.797 304.156C820.411 302.073 817.469 299.469 814.969 296.344C809.344 289.312 806.531 279.833 806.531 267.906C806.531 260.979 807.833 254.729 810.438 249.156C813.042 243.583 816.531 239.052 820.906 235.562C829.865 228.427 840.62 224.859 853.172 224.859C856.766 224.859 861.74 225.354 868.094 226.344L867.625 205.719C867.469 203.115 866.479 201.057 864.656 199.547C862.885 198.036 860.62 197.151 857.859 196.891C857.495 194.339 857.312 192.906 857.312 192.594C857.312 192.229 857.339 191.839 857.391 191.422C867.234 187.62 877.052 185.719 886.844 185.719C887.312 185.719 887.781 185.719 888.25 185.719C888.979 186.708 889.604 188.766 890.125 191.891C890.646 195.016 890.906 198.349 890.906 201.891ZM857.078 236.266C849.37 236.266 843.042 238.714 838.094 243.609C833.198 248.505 830.75 255.927 830.75 265.875C830.75 272.698 831.531 278.271 833.094 282.594C834.708 286.865 836.479 289.99 838.406 291.969C842.208 295.875 846.193 297.828 850.359 297.828C854.526 297.828 857.703 297.203 859.891 295.953C862.078 294.703 864.812 292.229 868.094 288.531C868.458 281.656 868.641 273.297 868.641 263.453C868.641 253.557 868.562 244.807 868.406 237.203C864.552 236.578 860.776 236.266 857.078 236.266ZM1006.36 262.984L1005.89 289.234C1005.89 289.495 1005.89 289.755 1005.89 290.016C1005.89 292.88 1007.24 294.312 1009.95 294.312C1012.04 294.312 1014.25 293.635 1016.59 292.281C1017.32 292.906 1018 293.792 1018.62 294.938C1019.3 296.031 1019.69 296.891 1019.8 297.516C1013.34 305.745 1006.62 309.859 999.641 309.859C992.714 309.859 987.87 306.448 985.109 299.625C980.318 302.958 975.422 305.484 970.422 307.203C965.474 308.974 961.203 309.859 957.609 309.859C954.068 309.859 950.76 309.469 947.688 308.688C944.667 307.906 941.854 306.656 939.25 304.938C933.625 301.292 930.812 295.276 930.812 286.891C930.812 282.411 932.036 278.505 934.484 275.172C936.984 271.786 940.37 269.13 944.641 267.203C952.818 263.505 962.583 261.5 973.938 261.188L983 260.875C983.365 256.656 983.547 253.323 983.547 250.875C983.547 245.354 982.479 241.188 980.344 238.375C978.26 235.562 974.354 234.156 968.625 234.156C965.188 234.156 962.505 235.354 960.578 237.75C958.703 240.146 957.766 243.688 957.766 248.375C957.766 249 956.88 249.755 955.109 250.641C952.141 252.047 949.172 252.75 946.203 252.75C943.286 252.75 940.943 251.917 939.172 250.25C937.453 248.583 936.594 246.24 936.594 243.219C936.594 240.198 937.688 237.359 939.875 234.703C942.062 232.047 944.979 229.99 948.625 228.531C955.865 225.667 964.12 224.234 973.391 224.234C983.078 224.234 990.161 225.771 994.641 228.844C998.703 231.552 1001.59 235.432 1003.31 240.484C1005.34 246.37 1006.36 253.87 1006.36 262.984ZM983 291.422C982.323 287.62 981.984 284.339 981.984 281.578C981.984 278.766 982.062 274.859 982.219 269.859L971.359 270.328C965.786 270.328 961.49 271.682 958.469 274.391C955.448 277.099 953.938 280.484 953.938 284.547C953.938 288.609 954.823 291.526 956.594 293.297C958.365 295.068 961.932 295.953 967.297 295.953C972.714 295.953 977.948 294.443 983 291.422ZM1054 282.281C1055.2 282.073 1056.92 281.969 1059.16 281.969C1061.45 281.969 1064.47 282.88 1068.22 284.703C1068.17 285.12 1068.14 285.901 1068.14 287.047C1068.14 288.193 1068.4 289.599 1068.92 291.266C1069.49 292.932 1070.35 294.469 1071.5 295.875C1074 299 1078.11 300.562 1083.84 300.562C1089.57 300.562 1093.32 298.635 1095.09 294.781C1096.6 291.24 1096.34 287.568 1094.31 283.766C1092.8 280.953 1088.77 278.271 1082.2 275.719C1081.11 275.302 1079.6 274.729 1077.67 274C1060.38 267.802 1051.63 258.844 1051.42 247.125C1051.42 241.812 1052.91 237.333 1055.88 233.688C1061.5 226.865 1071.01 223.453 1084.39 223.453C1093.19 223.453 1100.61 225.276 1106.66 228.922C1112.75 232.568 1115.8 237.047 1115.8 242.359C1115.8 248.297 1112.91 251.266 1107.12 251.266C1103.01 251.266 1100.12 250.823 1098.45 249.938C1096.79 249 1095.95 248.479 1095.95 248.375C1095.95 248.062 1095.95 247.776 1095.95 247.516C1095.95 237.776 1091.21 232.906 1081.73 232.906C1078.45 232.906 1075.85 233.766 1073.92 235.484C1072.05 237.151 1071.11 239.625 1071.11 242.906C1071.11 246.135 1072.26 248.818 1074.55 250.953C1076.89 253.089 1081.37 255.484 1087.98 258.141C1094.65 260.797 1098.92 262.594 1100.8 263.531C1112.52 269.208 1118.38 276.552 1118.38 285.562C1118.38 293.375 1115.07 299.391 1108.45 303.609C1101.89 307.776 1093.14 309.859 1082.2 309.859C1074.96 309.859 1069.49 309.234 1065.8 307.984C1062.1 306.734 1059.29 305.589 1057.36 304.547C1055.48 303.505 1053.92 302.411 1052.67 301.266C1051.47 300.12 1050.46 298.922 1049.62 297.672C1047.39 294.391 1046.73 291.057 1047.67 287.672C1048.45 284.807 1050.56 283.01 1054 282.281Z" fill="#186FA5"/>
<path d="M631.047 226.064C634.901 251.741 637.766 268.772 639.641 277.158C641.516 285.491 643.365 293.434 645.188 300.986C647.01 308.538 648.469 314.814 649.562 319.814C645.865 321.012 641.411 321.611 636.203 321.611C631.047 321.611 627.401 321.012 625.266 319.814C621.203 312.106 616.359 287.887 610.734 247.158C609.797 240.387 609.25 236.507 609.094 235.517C599.458 258.33 592.948 278.72 589.562 296.689C588.312 303.251 587.688 307.861 587.688 310.517C587.688 313.173 587.688 314.736 587.688 315.205C584.458 317.496 580.214 318.642 574.953 318.642C569.172 318.642 565.63 317.496 564.328 315.205C563.547 312.965 561.672 307.21 558.703 297.939C550.734 272.939 543.651 251.845 537.453 234.658L537.141 239.189C536.359 255.908 535.344 267.705 534.094 274.58C532.844 281.455 531.698 287.106 530.656 291.533C529.615 295.908 528.365 299.814 526.906 303.251C525.5 306.637 523.885 309.762 522.062 312.626C517.896 319.293 512.714 322.626 506.516 322.626C501.359 322.626 497.245 320.751 494.172 317.001C492.714 315.231 491.984 313.33 491.984 311.298C496.411 308.33 500.474 304.267 504.172 299.111C507.87 293.955 510.891 288.538 513.234 282.861C515.578 277.184 517.609 271.116 519.328 264.658C522.922 251.22 524.719 239.58 524.719 229.736C524.719 226.507 524.484 224.423 524.016 223.486C523.547 222.496 523.208 221.767 523 221.298C522.792 220.777 522.375 220.309 521.75 219.892C521.125 219.475 520.708 219.215 520.5 219.111C520.344 219.007 519.875 218.824 519.094 218.564C518.312 218.251 517.87 218.069 517.766 218.017C516.932 216.975 516.516 215.257 516.516 212.861C516.516 210.413 516.62 208.772 516.828 207.939C519.432 207.418 522.922 207.158 527.297 207.158C531.724 207.158 537.505 207.418 544.641 207.939C547.141 208.46 555.135 226.038 568.625 260.673C573.729 273.798 576.932 281.611 578.234 284.111C581.047 274.527 590.057 249.189 605.266 208.095C610.474 207.731 613.885 207.548 615.5 207.548C617.167 207.548 618.99 207.887 620.969 208.564C623 209.189 625.005 211.09 626.984 214.267C628.964 217.444 630.318 221.376 631.047 226.064Z" fill="#DE287D"/>
</svg>
